<svg version="1.1" id="Layer_1" xmlns="http://www.w3.org/2000/svg" xmlns:xlink="http://www.w3.org/1999/xlink" x="0px" y="0px"
	 width="100%" viewBox="0 0 1000 1000" enable-background="new 0 0 1000 1000" xml:space="preserve">
<path fill="#0D1117" opacity="1.000000" stroke="none" 
	d="
M691.000000,1001.000000 
	C460.666656,1001.000000 230.833328,1001.000000 1.000000,1001.000000 
	C1.000000,667.666687 1.000000,334.333344 1.000000,1.000000 
	C334.333344,1.000000 667.666687,1.000000 1001.000000,1.000000 
	C1001.000000,334.333344 1001.000000,667.666687 1001.000000,1001.000000 
	C897.833313,1001.000000 794.666687,1001.000000 691.000000,1001.000000 
M806.053162,481.880768 
	C805.995239,467.599091 805.937317,453.317383 806.113098,438.119110 
	C806.129944,427.955505 806.191223,417.791779 806.155701,407.628357 
	C806.007324,365.149261 805.913452,322.658203 799.977783,280.469940 
	C797.723022,264.443939 794.389526,248.667328 786.163147,234.387299 
	C775.723450,216.265274 758.818848,207.889236 738.407776,210.801788 
	C723.781189,212.888931 710.406006,218.688690 698.392456,226.776855 
	C678.669556,240.055344 659.695007,254.442780 640.303284,268.219666 
	C638.301453,269.641846 635.612549,270.880981 633.240417,270.884644 
	C545.431458,271.019348 457.622223,271.019073 369.813263,270.886139 
	C367.436554,270.882538 364.700287,269.702454 362.745697,268.246582 
	C349.926422,258.698303 337.533447,248.560471 324.504761,239.314865 
	C308.738312,228.126450 292.255615,218.042999 273.421936,212.634186 
	C247.672562,205.239243 226.818726,214.424820 214.750336,238.303375 
	C208.043701,251.573074 205.125214,265.900421 203.017014,280.415314 
	C198.361740,312.466644 197.436569,344.772003 197.052277,377.086914 
	C196.806732,397.733307 197.079971,418.385895 197.015823,439.963470 
	C196.957016,452.643311 196.898209,465.323181 196.242249,477.739410 
	C175.823868,456.728394 148.467209,450.959198 122.792076,461.782776 
	C117.459938,464.030579 115.891197,467.070740 117.455170,472.544281 
	C118.791153,471.813477 120.061798,471.087128 121.359695,470.413239 
	C136.468857,462.568298 152.077484,461.365570 168.139145,467.057404 
	C180.136520,471.309021 189.213531,479.392120 196.918472,490.210846 
	C196.893982,497.987122 196.869476,505.763397 196.241241,513.172852 
	C176.247711,489.713440 147.291672,482.387207 120.348404,493.560242 
	C115.007782,495.774933 112.580414,498.573639 114.368980,504.324768 
	C114.757530,504.222992 115.287369,504.205475 115.679466,503.964142 
	C141.880356,487.838440 175.877029,495.595306 193.320328,520.964905 
	C194.016769,521.977783 195.643845,522.350708 196.975800,523.947205 
	C196.983414,533.613342 196.990646,543.279419 196.998749,552.945557 
	C197.017426,575.239929 197.540787,597.315979 201.557648,619.532593 
	C214.377884,690.439514 252.053833,742.660645 315.713959,775.985962 
	C328.092255,782.465881 341.505585,786.968628 355.001282,792.617676 
	C355.001282,783.864563 354.889313,776.202820 355.060425,768.547424 
	C355.122528,765.769226 354.238434,764.206421 351.890137,762.552307 
	C347.014221,759.117737 342.064667,755.539734 338.038940,751.192993 
	C326.099518,738.301514 321.992401,723.547485 328.770416,706.564209 
	C330.376465,702.539978 332.375763,700.854248 337.139343,700.861572 
	C453.799286,701.040161 570.459595,701.021423 687.119751,700.945801 
	C693.429321,700.941711 699.821228,700.640991 706.034668,699.623047 
	C764.851257,689.986877 805.987061,641.266907 806.008484,581.508545 
	C806.014771,564.013000 806.108765,546.517517 806.834229,528.949341 
	C807.686584,527.983521 808.600586,527.065002 809.382080,526.044861 
	C822.692261,508.668976 840.098450,499.651459 862.086487,502.127045 
	C870.899475,503.119263 879.414001,506.762543 887.805786,509.126282 
	C887.368530,507.066742 889.814941,503.364014 885.165100,501.171722 
	C872.455872,495.179626 859.251770,493.072937 845.409058,495.454895 
	C829.533997,498.186584 816.850586,506.519073 806.034668,517.276123 
	C806.076416,509.491333 806.118164,501.706543 806.731995,493.629425 
	C815.854980,481.419159 827.781433,473.505768 842.786621,470.595093 
	C857.719910,467.698395 871.682922,470.743652 885.237671,479.027527 
	C884.362122,475.041077 886.821228,471.310120 882.137451,469.157104 
	C871.995667,464.495270 861.500610,462.044189 850.304199,462.598236 
	C832.844666,463.462128 818.476501,470.945892 806.053162,481.880768 
z"/>
<path fill="#FE259F" opacity="1.000000" stroke="none" 
	d="
M197.120621,439.035706 
	C197.079971,418.385895 196.806732,397.733307 197.052277,377.086914 
	C197.436569,344.772003 198.361740,312.466644 203.017014,280.415314 
	C205.125214,265.900421 208.043701,251.573074 214.750336,238.303375 
	C226.818726,214.424820 247.672562,205.239243 273.421936,212.634186 
	C292.255615,218.042999 308.738312,228.126450 324.504761,239.314865 
	C337.533447,248.560471 349.926422,258.698303 362.745697,268.246582 
	C364.700287,269.702454 367.436554,270.882538 369.813263,270.886139 
	C457.622223,271.019073 545.431458,271.019348 633.240417,270.884644 
	C635.612549,270.880981 638.301453,269.641846 640.303284,268.219666 
	C659.695007,254.442780 678.669556,240.055344 698.392456,226.776855 
	C710.406006,218.688690 723.781189,212.888931 738.407776,210.801788 
	C758.818848,207.889236 775.723450,216.265274 786.163147,234.387299 
	C794.389526,248.667328 797.723022,264.443939 799.977783,280.469940 
	C805.913452,322.658203 806.007324,365.149261 806.155701,407.628357 
	C806.191223,417.791779 806.129944,427.955505 805.536011,438.562256 
	C794.694214,439.003784 784.429565,439.002197 774.094055,438.536621 
	C773.651306,420.148224 773.891602,402.186005 772.787842,384.306732 
	C769.964417,338.574432 732.682251,304.017792 686.767639,304.009247 
	C563.284729,303.986206 439.801819,303.981964 316.318909,304.017578 
	C291.375671,304.024750 270.138580,313.065460 253.066788,331.241241 
	C237.217056,348.115967 229.796432,368.629272 229.085098,391.520752 
	C228.593704,407.334686 228.890518,423.173096 228.376770,439.000458 
	C217.652512,439.012146 207.386566,439.023926 197.120621,439.035706 
M768.948792,303.007416 
	C768.948792,303.007416 769.067139,303.189606 769.067139,303.189606 
	C769.067139,303.189606 768.855835,303.100586 769.205688,302.233063 
	C768.362305,294.966980 768.185547,287.543365 766.515198,280.472626 
	C764.161621,270.510345 761.442749,260.497253 757.482971,251.094208 
	C754.236633,243.385315 749.231506,241.757080 741.016296,243.829514 
	C722.436951,248.516541 707.259277,259.554840 690.915039,270.831543 
	C721.550354,272.451294 747.200684,283.192749 768.948792,303.007416 
M234.626617,302.768158 
	C256.170715,282.860931 281.763702,272.531036 312.083344,270.801147 
	C306.391815,266.910156 301.902344,263.162598 296.837311,260.516968 
	C285.702423,254.700989 274.568665,248.678329 262.874084,244.205078 
	C254.031189,240.822601 249.017502,243.433197 244.909409,251.902893 
	C237.102051,267.999420 234.619293,285.362640 234.069351,303.184845 
	C234.069351,303.184845 233.917831,303.050659 233.917831,303.050659 
	C233.917831,303.050659 234.056091,303.126038 234.626617,302.768158 
z"/>
<path fill="#23CCEE" opacity="1.000000" stroke="none" 
	d="
M197.068222,439.499573 
	C207.386566,439.023926 217.652512,439.012146 228.447906,439.464417 
	C228.985260,490.916870 229.744568,541.920776 228.691574,592.887268 
	C228.145630,619.311951 232.912292,644.496887 242.958313,668.211792 
	C254.772171,696.099915 274.690216,718.453430 299.036316,736.631042 
	C299.845276,737.235107 300.858246,737.565979 302.501434,738.386169 
	C299.374207,724.438965 300.049347,711.513672 304.833221,698.846619 
	C305.387512,697.378906 304.993042,695.543274 304.994934,693.878174 
	C305.004364,685.587952 304.999237,677.297729 304.999237,668.999329 
	C308.828369,668.999329 312.127441,668.999329 315.426514,668.999329 
	C439.572174,668.999329 563.717834,669.022827 687.863525,668.987549 
	C735.658264,668.973938 773.924316,630.729187 773.987915,582.965210 
	C774.042480,541.972168 773.991577,500.979065 774.006775,459.985992 
	C774.009399,452.990845 774.109741,445.995728 774.164856,439.000610 
	C784.429565,439.002197 794.694214,439.003784 805.419189,439.020538 
	C805.937317,453.317383 805.995239,467.599091 806.047974,482.799500 
	C806.081787,487.119385 806.120850,490.520569 806.159912,493.921753 
	C806.118164,501.706543 806.076416,509.491333 806.054565,518.196533 
	C806.103882,522.418640 806.133240,525.720337 806.162598,529.021973 
	C806.108765,546.517517 806.014771,564.013000 806.008484,581.508545 
	C805.987061,641.266907 764.851257,689.986877 706.034668,699.623047 
	C699.821228,700.640991 693.429321,700.941711 687.119751,700.945801 
	C570.459595,701.021423 453.799286,701.040161 337.139343,700.861572 
	C332.375763,700.854248 330.376465,702.539978 328.770416,706.564209 
	C321.992401,723.547485 326.099518,738.301514 338.038940,751.192993 
	C342.064667,755.539734 347.014221,759.117737 351.890137,762.552307 
	C354.238434,764.206421 355.122528,765.769226 355.060425,768.547424 
	C354.889313,776.202820 355.001282,783.864563 355.001282,792.617676 
	C341.505585,786.968628 328.092255,782.465881 315.713959,775.985962 
	C252.053833,742.660645 214.377884,690.439514 201.557648,619.532593 
	C197.540787,597.315979 197.017426,575.239929 196.998749,552.945557 
	C196.990646,543.279419 196.983414,533.613342 196.981796,523.047241 
	C196.940186,519.278137 196.892578,516.408875 196.844971,513.539673 
	C196.869476,505.763397 196.893982,497.987122 196.941422,489.287964 
	C196.922714,484.911072 196.881058,481.457031 196.839401,478.003021 
	C196.898209,465.323181 196.957016,452.643311 197.068222,439.499573 
z"/>
<path fill="#F5F5F6" opacity="1.000000" stroke="none" 
	d="
M196.543106,513.356262 
	C196.892578,516.408875 196.940186,519.278137 196.912537,522.584595 
	C195.643845,522.350708 194.016769,521.977783 193.320328,520.964905 
	C175.877029,495.595306 141.880356,487.838440 115.679466,503.964142 
	C115.287369,504.205475 114.757530,504.222992 114.368980,504.324768 
	C112.580414,498.573639 115.007782,495.774933 120.348404,493.560242 
	C147.291672,482.387207 176.247711,489.713440 196.543106,513.356262 
z"/>
<path fill="#F5F5F6" opacity="1.000000" stroke="none" 
	d="
M806.498413,528.985657 
	C806.133240,525.720337 806.103882,522.418640 806.117432,518.676392 
	C816.850586,506.519073 829.533997,498.186584 845.409058,495.454895 
	C859.251770,493.072937 872.455872,495.179626 885.165100,501.171722 
	C889.814941,503.364014 887.368530,507.066742 887.805786,509.126282 
	C879.414001,506.762543 870.899475,503.119263 862.086487,502.127045 
	C840.098450,499.651459 822.692261,508.668976 809.382080,526.044861 
	C808.600586,527.065002 807.686584,527.983521 806.498413,528.985657 
z"/>
<path fill="#F5F5F6" opacity="1.000000" stroke="none" 
	d="
M196.540833,477.871216 
	C196.881058,481.457031 196.922714,484.911072 196.901031,488.840576 
	C189.213531,479.392120 180.136520,471.309021 168.139145,467.057404 
	C152.077484,461.365570 136.468857,462.568298 121.359695,470.413239 
	C120.061798,471.087128 118.791153,471.813477 117.455170,472.544281 
	C115.891197,467.070740 117.459938,464.030579 122.792076,461.782776 
	C148.467209,450.959198 175.823868,456.728394 196.540833,477.871216 
z"/>
<path fill="#F5F5F5" opacity="1.000000" stroke="none" 
	d="
M806.445923,493.775574 
	C806.120850,490.520569 806.081787,487.119385 806.101501,483.324097 
	C818.476501,470.945892 832.844666,463.462128 850.304199,462.598236 
	C861.500610,462.044189 871.995667,464.495270 882.137451,469.157104 
	C886.821228,471.310120 884.362122,475.041077 885.237671,479.027527 
	C871.682922,470.743652 857.719910,467.698395 842.786621,470.595093 
	C827.781433,473.505768 815.854980,481.419159 806.445923,493.775574 
z"/>
<path fill="#0D1117" opacity="1.000000" stroke="none" 
	d="
M774.094055,438.536621 
	C774.109741,445.995728 774.009399,452.990845 774.006775,459.985992 
	C773.991577,500.979065 774.042480,541.972168 773.987915,582.965210 
	C773.924316,630.729187 735.658264,668.973938 687.863525,668.987549 
	C563.717834,669.022827 439.572174,668.999329 315.426514,668.999329 
	C312.127441,668.999329 308.828369,668.999329 304.999237,668.999329 
	C304.999237,677.297729 305.004364,685.587952 304.994934,693.878174 
	C304.993042,695.543274 305.387512,697.378906 304.833221,698.846619 
	C300.049347,711.513672 299.374207,724.438965 302.501434,738.386169 
	C300.858246,737.565979 299.845276,737.235107 299.036316,736.631042 
	C274.690216,718.453430 254.772171,696.099915 242.958313,668.211792 
	C232.912292,644.496887 228.145630,619.311951 228.691574,592.887268 
	C229.744568,541.920776 228.985260,490.916870 228.906219,439.464539 
	C228.890518,423.173096 228.593704,407.334686 229.085098,391.520752 
	C229.796432,368.629272 237.217056,348.115967 253.066788,331.241241 
	C270.138580,313.065460 291.375671,304.024750 316.318909,304.017578 
	C439.801819,303.981964 563.284729,303.986206 686.767639,304.009247 
	C732.682251,304.017792 769.964417,338.574432 772.787842,384.306732 
	C773.891602,402.186005 773.651306,420.148224 774.094055,438.536621 
M335.770844,457.316406 
	C335.176422,458.502533 334.513489,459.659668 333.998047,460.879181 
	C328.026031,475.008636 331.128632,491.119507 341.886353,501.962463 
	C352.612244,512.773315 368.807556,515.988586 382.925171,510.109680 
	C397.038574,504.232483 406.078766,490.567413 406.001953,475.226929 
	C405.919586,458.779541 395.008453,444.304535 379.098694,439.536591 
	C362.646454,434.606049 346.199951,441.145996 335.770844,457.316406 
M684.735352,505.247040 
	C685.672424,504.302155 686.661682,503.403046 687.538696,502.405365 
	C698.717407,489.689148 700.170532,471.651978 691.176086,457.498108 
	C682.142151,443.282196 664.996338,436.771362 649.018372,441.489349 
	C632.806335,446.276489 621.591553,461.175995 622.066528,478.114624 
	C622.489441,493.199432 629.564819,504.620819 643.215881,511.150818 
	C657.834106,518.143372 671.654175,515.904602 684.735352,505.247040 
M491.459290,518.745300 
	C500.168976,515.943604 507.525330,511.408691 512.103760,503.088562 
	C512.321838,502.692291 515.160034,502.904388 515.569214,503.572968 
	C520.833069,512.174011 529.039124,516.296265 538.290527,518.811584 
	C544.033752,520.373047 549.470825,518.960327 552.144226,514.532288 
	C548.147827,513.709167 544.619507,512.556030 541.031250,512.322266 
	C529.687195,511.583221 523.091064,504.299622 517.623596,495.600647 
	C516.930237,494.497467 517.818542,491.772461 518.791931,490.364075 
	C522.065674,485.626923 525.846497,481.242432 529.172668,476.538757 
	C532.536987,471.781189 531.016663,468.515594 525.304443,468.379761 
	C516.814819,468.177917 508.312988,468.210144 499.822693,468.410797 
	C494.222076,468.543121 492.842255,471.202454 496.010803,476.059631 
	C499.247314,481.020844 503.281647,485.469788 506.405914,490.491852 
	C507.600128,492.411499 508.363586,495.994476 507.365143,497.606964 
	C504.910034,501.572021 501.792816,505.472931 498.074951,508.230988 
	C492.197754,512.590881 485.129364,514.151062 477.738159,514.468384 
	C475.668915,514.557129 471.897858,516.475830 471.957977,517.343811 
	C472.188812,520.676147 475.039703,521.726807 478.189972,521.219055 
	C482.362640,520.546448 486.505096,519.686768 491.459290,518.745300 
z"/>
<path fill="#101219" opacity="1.000000" stroke="none" 
	d="
M234.140976,303.078156 
	C234.619293,285.362640 237.102051,267.999420 244.909409,251.902893 
	C249.017502,243.433197 254.031189,240.822601 262.874084,244.205078 
	C274.568665,248.678329 285.702423,254.700989 296.837311,260.516968 
	C301.902344,263.162598 306.391815,266.910156 312.083344,270.801147 
	C281.763702,272.531036 256.170715,282.860931 234.355865,302.922913 
	C234.085114,303.077667 234.140976,303.078156 234.140976,303.078156 
z"/>
<path fill="#101219" opacity="1.000000" stroke="none" 
	d="
M768.943542,303.157318 
	C747.200684,283.192749 721.550354,272.451294 690.915039,270.831543 
	C707.259277,259.554840 722.436951,248.516541 741.016296,243.829514 
	C749.231506,241.757080 754.236633,243.385315 757.482971,251.094208 
	C761.442749,260.497253 764.161621,270.510345 766.515198,280.472626 
	C768.185547,287.543365 768.362305,294.966980 769.060425,302.669006 
	C768.915161,303.104980 768.943542,303.157318 768.943542,303.157318 
z"/>
<path fill="#101219" opacity="1.000000" stroke="none" 
	d="
M234.070602,303.101868 
	C234.056091,303.126038 233.917831,303.050659 233.917831,303.050659 
	C233.917831,303.050659 234.069351,303.184845 234.105164,303.131500 
	C234.140976,303.078156 234.085114,303.077667 234.070602,303.101868 
z"/>
<path fill="#101219" opacity="1.000000" stroke="none" 
	d="
M768.885498,303.102783 
	C768.855835,303.100586 769.067139,303.189606 769.067139,303.189606 
	C769.067139,303.189606 768.948792,303.007416 768.946167,303.082367 
	C768.943542,303.157318 768.915161,303.104980 768.885498,303.102783 
z"/>
<path fill="#FEFEFE" opacity="1.000000" stroke="none" 
	d="
M335.923004,456.980591 
	C346.199951,441.145996 362.646454,434.606049 379.098694,439.536591 
	C395.008453,444.304535 405.919586,458.779541 406.001953,475.226929 
	C406.078766,490.567413 397.038574,504.232483 382.925171,510.109680 
	C368.807556,515.988586 352.612244,512.773315 341.886353,501.962463 
	C331.128632,491.119507 328.026031,475.008636 333.998047,460.879181 
	C334.513489,459.659668 335.176422,458.502533 335.923004,456.980591 
z"/>
<path fill="#FEFEFE" opacity="1.000000" stroke="none" 
	d="
M684.475281,505.488098 
	C671.654175,515.904602 657.834106,518.143372 643.215881,511.150818 
	C629.564819,504.620819 622.489441,493.199432 622.066528,478.114624 
	C621.591553,461.175995 632.806335,446.276489 649.018372,441.489349 
	C664.996338,436.771362 682.142151,443.282196 691.176086,457.498108 
	C700.170532,471.651978 698.717407,489.689148 687.538696,502.405365 
	C686.661682,503.403046 685.672424,504.302155 684.475281,505.488098 
z"/>
<path fill="#ECECEC" opacity="1.000000" stroke="none" 
	d="
M491.059937,518.826416 
	C486.505096,519.686768 482.362640,520.546448 478.189972,521.219055 
	C475.039703,521.726807 472.188812,520.676147 471.957977,517.343811 
	C471.897858,516.475830 475.668915,514.557129 477.738159,514.468384 
	C485.129364,514.151062 492.197754,512.590881 498.074951,508.230988 
	C501.792816,505.472931 504.910034,501.572021 507.365143,497.606964 
	C508.363586,495.994476 507.600128,492.411499 506.405914,490.491852 
	C503.281647,485.469788 499.247314,481.020844 496.010803,476.059631 
	C492.842255,471.202454 494.222076,468.543121 499.822693,468.410797 
	C508.312988,468.210144 516.814819,468.177917 525.304443,468.379761 
	C531.016663,468.515594 532.536987,471.781189 529.172668,476.538757 
	C525.846497,481.242432 522.065674,485.626923 518.791931,490.364075 
	C517.818542,491.772461 516.930237,494.497467 517.623596,495.600647 
	C523.091064,504.299622 529.687195,511.583221 541.031250,512.322266 
	C544.619507,512.556030 548.147827,513.709167 552.144226,514.532288 
	C549.470825,518.960327 544.033752,520.373047 538.290527,518.811584 
	C529.039124,516.296265 520.833069,512.174011 515.569214,503.572968 
	C515.160034,502.904388 512.321838,502.692291 512.103760,503.088562 
	C507.525330,511.408691 500.168976,515.943604 491.059937,518.826416 
z"/>
</svg>