<svg id="svg" version="1.1" xmlns="http://www.w3.org/2000/svg" xmlns:xlink="http://www.w3.org/1999/xlink" width="400" height="133.33333333333334" viewBox="0, 0, 400,133.33333333333334"><g id="svgg"><path id="path0" d="M30.156 25.015 C 30.030 25.190,29.793 25.333,29.630 25.333 C 29.467 25.333,29.333 25.408,29.333 25.500 C 29.333 25.592,29.240 25.672,29.125 25.678 C 28.819 25.694,27.334 27.446,27.334 27.792 C 27.333 27.906,27.270 28.000,27.193 28.000 C 27.116 28.000,26.954 28.300,26.833 28.667 C 26.712 29.033,26.553 29.333,26.480 29.333 C 26.406 29.333,26.253 29.783,26.140 30.333 C 26.026 30.883,25.886 31.333,25.828 31.333 C 25.770 31.333,25.716 31.427,25.708 31.542 C 25.662 32.239,25.280 34.676,25.140 35.167 C 24.966 35.779,24.696 45.590,24.678 52.014 L 24.667 55.779 26.875 55.702 C 28.090 55.660,29.097 55.615,29.115 55.601 C 29.132 55.588,29.221 51.678,29.313 46.913 C 29.477 38.444,29.561 36.833,29.838 36.833 C 29.913 36.833,30.012 36.252,30.057 35.542 C 30.157 33.975,30.326 33.000,30.497 33.000 C 30.568 33.000,30.667 32.791,30.718 32.535 C 30.821 32.018,31.555 31.133,32.114 30.851 C 32.580 30.615,34.000 30.610,34.000 30.843 C 34.000 30.940,34.078 30.971,34.174 30.912 C 34.270 30.853,34.438 30.879,34.549 30.971 C 34.660 31.062,35.031 31.189,35.375 31.254 C 35.741 31.322,36.000 31.466,36.000 31.602 C 36.000 31.729,36.147 31.833,36.326 31.833 C 36.505 31.833,36.839 32.021,37.068 32.250 C 37.297 32.479,37.592 32.667,37.723 32.667 C 37.854 32.667,37.998 32.806,38.042 32.977 C 38.087 33.148,38.539 33.491,39.047 33.740 C 40.349 34.377,41.830 35.771,42.399 36.897 L 42.873 37.833 65.017 37.833 L 87.160 37.833 87.272 37.387 C 87.553 36.268,89.196 34.509,90.627 33.793 C 91.038 33.588,91.411 33.326,91.455 33.210 C 91.499 33.095,91.608 33.000,91.696 33.000 C 91.784 33.000,92.103 32.737,92.406 32.417 C 92.708 32.096,93.041 31.833,93.145 31.833 C 93.248 31.833,93.333 31.762,93.333 31.676 C 93.333 31.515,93.794 31.227,94.833 30.737 C 95.154 30.586,95.470 30.377,95.536 30.273 C 95.688 30.030,97.804 30.021,97.964 30.262 C 98.030 30.361,98.215 30.489,98.375 30.549 C 98.535 30.608,98.667 30.754,98.667 30.874 C 98.667 30.994,98.815 31.219,98.995 31.374 C 99.176 31.529,99.375 31.864,99.438 32.119 C 99.500 32.375,99.608 32.621,99.677 32.667 C 99.747 32.713,99.901 33.238,100.021 33.834 C 100.141 34.429,100.302 34.961,100.380 35.016 C 100.457 35.071,100.550 35.789,100.586 36.611 C 100.621 37.433,100.727 38.589,100.820 39.178 C 100.913 39.768,100.999 41.900,101.010 43.917 C 101.021 45.933,101.069 49.590,101.118 52.042 L 101.206 56.500 103.441 56.500 L 105.677 56.500 105.610 51.792 C 105.558 48.132,105.235 38.106,105.129 36.875 C 105.119 36.760,105.049 36.667,104.972 36.667 C 104.896 36.667,104.833 36.370,104.833 36.007 C 104.833 35.142,104.483 32.773,104.340 32.667 C 104.278 32.621,104.127 32.040,104.004 31.375 C 103.881 30.710,103.733 30.167,103.676 30.167 C 103.619 30.167,103.473 29.829,103.351 29.417 C 103.230 29.004,103.078 28.667,103.015 28.667 C 102.952 28.667,102.803 28.396,102.683 28.066 C 102.564 27.736,102.061 27.051,101.566 26.544 C 101.071 26.037,100.667 25.557,100.667 25.478 C 100.667 25.398,100.479 25.333,100.250 25.333 C 100.021 25.333,99.833 25.258,99.833 25.167 C 99.833 25.075,99.721 25.000,99.583 25.000 C 99.446 25.000,99.333 24.925,99.333 24.833 C 99.333 24.732,98.587 24.667,97.427 24.667 C 96.335 24.667,95.476 24.738,95.417 24.833 C 95.360 24.925,95.168 25.000,94.990 25.000 C 94.812 25.000,94.667 25.075,94.667 25.167 C 94.667 25.258,94.507 25.333,94.312 25.333 C 93.981 25.333,92.018 26.239,91.833 26.477 C 91.787 26.536,91.525 26.696,91.250 26.833 C 90.975 26.971,90.690 27.177,90.617 27.291 C 90.543 27.406,90.383 27.500,90.260 27.500 C 90.136 27.500,89.992 27.613,89.940 27.750 C 89.887 27.887,89.754 28.000,89.644 28.000 C 89.534 28.000,89.326 28.111,89.181 28.246 C 88.584 28.801,87.699 29.500,87.592 29.500 C 87.529 29.500,87.230 29.762,86.927 30.083 C 86.625 30.404,86.329 30.667,86.270 30.667 C 86.096 30.667,84.500 32.322,84.500 32.502 C 84.500 32.593,84.393 32.667,84.261 32.667 C 84.130 32.667,83.975 32.817,83.917 33.000 C 83.796 33.379,48.000 33.545,48.000 33.167 C 48.000 33.075,47.886 33.000,47.746 33.000 C 47.607 33.000,47.091 32.606,46.599 32.125 C 45.790 31.333,44.848 30.512,43.971 29.833 C 43.793 29.696,43.408 29.378,43.116 29.127 C 42.823 28.875,42.452 28.627,42.292 28.574 C 42.131 28.521,42.000 28.417,42.000 28.342 C 42.000 28.268,41.775 28.114,41.500 28.000 C 41.225 27.886,41.000 27.736,41.000 27.667 C 41.000 27.597,40.775 27.447,40.500 27.333 C 40.225 27.219,40.000 27.060,40.000 26.980 C 40.000 26.899,39.850 26.833,39.667 26.833 C 39.481 26.833,39.333 26.722,39.333 26.583 C 39.333 26.446,39.277 26.351,39.208 26.373 C 39.005 26.438,38.000 25.972,38.000 25.813 C 38.000 25.733,37.854 25.667,37.677 25.667 C 37.499 25.667,37.307 25.592,37.250 25.500 C 37.193 25.408,36.926 25.333,36.657 25.333 C 36.387 25.333,36.167 25.258,36.167 25.167 C 36.167 25.075,36.021 25.000,35.843 25.000 C 35.665 25.000,35.471 24.922,35.413 24.827 C 35.196 24.477,30.420 24.649,30.156 25.015 " stroke="none" fill="#fb249c" fill-rule="evenodd"></path><path id="path1" d="M25.125 55.786 L 24.667 55.855 24.672 66.803 C 24.677 77.397,24.688 77.780,25.017 78.667 C 25.204 79.171,25.349 79.803,25.340 80.071 C 25.316 80.774,25.967 83.042,26.945 85.667 C 27.912 88.261,29.435 91.074,31.188 93.500 C 32.475 95.280,33.050 96.000,33.187 96.000 C 33.267 96.000,33.333 96.080,33.333 96.178 C 33.333 96.410,36.923 100.000,37.156 100.000 C 37.253 100.000,37.333 100.066,37.333 100.146 C 37.333 100.283,38.002 100.818,39.833 102.148 C 40.985 102.984,42.825 104.132,43.750 104.592 C 44.208 104.820,44.696 105.069,44.833 105.145 C 46.568 106.110,50.993 107.666,52.000 107.666 C 53.932 107.665,54.951 105.641,53.973 103.746 C 53.832 103.473,53.470 102.763,53.168 102.167 C 52.867 101.571,52.524 100.894,52.406 100.662 C 51.499 98.879,50.753 95.606,50.593 92.708 L 50.498 91.000 70.957 90.997 C 94.358 90.993,93.532 91.042,96.750 89.470 C 99.619 88.069,103.333 84.672,103.333 83.451 C 103.333 83.319,103.483 83.021,103.667 82.788 C 103.850 82.555,104.000 82.301,104.001 82.224 C 104.002 82.147,104.121 81.858,104.267 81.583 C 105.544 79.177,105.660 77.930,105.663 66.542 L 105.667 56.500 103.417 56.500 L 101.167 56.500 101.163 65.708 C 101.160 75.567,101.101 76.484,100.352 78.370 C 98.892 82.045,96.617 84.276,92.935 85.643 L 91.750 86.083 69.184 86.119 L 46.617 86.155 46.210 86.536 C 45.393 87.299,45.278 87.748,45.388 89.745 C 45.574 93.115,46.033 96.897,46.482 98.762 L 46.927 100.608 45.755 99.948 C 45.111 99.585,44.384 99.148,44.141 98.977 C 43.898 98.806,43.623 98.667,43.530 98.667 C 43.437 98.667,43.336 98.609,43.306 98.540 C 43.275 98.470,42.837 98.121,42.333 97.765 C 41.829 97.408,41.357 97.016,41.283 96.892 C 41.210 96.768,41.068 96.667,40.969 96.667 C 40.739 96.667,36.667 92.585,36.667 92.354 C 36.667 92.260,36.565 92.123,36.442 92.050 C 36.318 91.977,35.925 91.504,35.569 91.000 C 35.212 90.496,34.864 90.058,34.794 90.028 C 34.724 89.997,34.667 89.905,34.667 89.823 C 34.667 89.740,34.408 89.269,34.092 88.775 C 33.467 87.798,32.206 85.384,31.904 84.583 C 30.930 82.011,30.656 81.165,30.564 80.433 C 30.504 79.966,30.389 79.499,30.307 79.395 C 30.226 79.291,30.036 78.466,29.886 77.562 C 29.736 76.657,29.545 75.871,29.461 75.816 C 29.374 75.758,29.268 71.438,29.212 65.691 L 29.114 55.667 27.349 55.692 C 26.378 55.705,25.377 55.748,25.125 55.786 " stroke="none" fill="#24cbeb" fill-rule="evenodd"></path><path id="path2" d="M149.786 41.181 C 148.782 41.711,148.411 43.337,147.992 49.032 C 147.792 51.748,147.333 54.385,147.333 52.818 C 147.333 52.226,146.341 50.829,145.667 50.471 C 144.724 49.971,141.632 50.430,140.305 51.268 C 139.044 52.064,136.000 55.273,136.000 55.806 C 136.000 55.898,135.941 55.997,135.868 56.028 C 135.449 56.204,133.282 60.255,132.584 62.167 C 131.224 65.890,131.318 68.442,132.872 69.980 L 133.566 70.667 135.087 70.667 C 137.868 70.667,140.506 69.411,143.177 66.817 C 144.217 65.807,145.881 63.911,145.985 63.616 C 146.023 63.510,146.142 63.334,146.250 63.227 C 146.357 63.119,146.702 62.630,147.014 62.141 C 147.579 61.259,147.584 61.256,147.633 61.751 C 148.463 70.022,153.765 70.046,160.667 61.810 L 161.455 60.870 161.565 65.393 C 161.829 76.335,160.611 78.417,155.122 76.398 C 152.592 75.467,152.450 77.679,154.937 79.270 C 157.575 80.958,161.198 81.063,162.699 79.495 C 162.854 79.333,163.049 79.174,163.132 79.142 C 163.350 79.057,164.665 77.283,164.666 77.073 C 164.666 76.976,164.817 76.585,165.000 76.206 C 165.183 75.827,165.333 75.404,165.333 75.266 C 165.333 75.129,165.450 74.581,165.592 74.050 C 166.009 72.494,166.202 69.151,166.235 62.917 C 166.264 57.283,166.278 57.049,166.646 56.083 C 167.410 54.076,167.439 53.887,167.060 53.377 C 165.681 51.520,162.000 53.007,162.000 55.421 C 162.000 55.561,160.450 57.188,157.609 60.030 C 154.588 63.052,152.982 64.077,152.337 63.394 C 151.409 62.412,151.056 57.378,151.648 53.550 C 152.177 50.124,152.666 47.238,152.955 45.833 C 153.330 44.005,153.488 42.325,153.326 41.897 C 152.985 41.000,150.920 40.582,149.786 41.181 M166.010 42.410 C 165.704 42.635,165.301 43.121,165.114 43.490 L 164.773 44.160 165.172 45.012 C 166.580 48.018,168.470 48.089,170.087 45.198 C 171.320 42.991,168.155 40.827,166.010 42.410 M302.417 42.977 C 300.927 43.897,300.673 44.821,300.260 50.817 C 300.056 53.775,299.980 54.279,299.679 54.685 C 299.489 54.943,299.333 55.202,299.333 55.261 C 299.333 55.320,299.165 55.575,298.958 55.828 C 298.752 56.080,298.471 56.452,298.333 56.654 C 297.298 58.172,292.133 63.333,291.648 63.333 C 291.576 63.333,291.457 63.429,291.383 63.546 C 291.200 63.838,289.684 64.878,289.000 65.181 C 288.771 65.283,288.358 65.472,288.083 65.601 C 285.774 66.689,283.868 66.718,282.928 65.679 C 281.460 64.057,285.081 55.863,287.537 55.247 C 288.020 55.125,288.667 55.399,288.667 55.725 C 288.667 56.793,290.674 57.152,291.436 56.221 C 293.240 54.017,291.282 51.157,288.117 51.372 C 286.966 51.451,286.496 51.597,284.833 52.391 C 282.817 53.355,280.581 56.488,279.045 60.500 C 276.432 67.325,279.418 71.631,285.852 70.317 C 286.346 70.216,287.012 70.079,287.333 70.012 C 287.866 69.902,288.342 69.721,289.500 69.189 C 290.177 68.878,291.041 68.340,291.699 67.820 C 292.037 67.552,292.364 67.333,292.425 67.333 C 292.487 67.333,292.922 67.019,293.394 66.636 C 295.435 64.973,297.305 63.078,298.827 61.129 C 299.235 60.607,299.578 60.196,299.589 60.215 C 299.673 60.362,299.087 65.455,298.467 69.971 C 298.153 72.251,298.786 73.318,300.458 73.328 C 301.328 73.333,302.667 72.499,302.667 71.952 C 302.667 71.855,302.768 71.658,302.893 71.513 C 303.017 71.368,303.380 70.762,303.700 70.167 C 305.031 67.688,305.217 67.396,306.979 65.019 C 308.490 62.981,311.853 59.438,312.443 59.261 C 312.917 59.120,313.118 59.732,313.257 61.750 C 313.395 63.757,314.196 67.333,314.507 67.333 C 314.595 67.333,314.667 67.418,314.667 67.523 C 314.667 68.775,318.264 69.613,320.632 68.911 C 322.490 68.361,325.997 66.407,326.602 65.585 C 326.919 65.154,327.024 65.306,326.919 66.042 C 326.432 69.441,329.453 72.251,332.431 71.169 C 334.435 70.442,335.690 69.729,336.986 68.583 C 337.964 67.719,339.333 66.366,339.333 66.264 C 339.333 66.146,340.016 65.449,340.056 65.528 C 341.209 67.835,342.388 68.667,344.504 68.667 C 346.410 68.667,347.680 68.238,350.083 66.785 C 350.475 66.548,352.836 64.596,353.644 63.841 C 354.330 63.200,354.401 63.251,354.160 64.206 C 353.855 65.420,354.014 69.107,354.407 69.917 C 356.585 74.403,363.566 72.957,366.970 67.314 C 368.327 65.063,365.970 64.268,363.917 66.283 C 362.539 67.635,360.846 68.667,360.003 68.667 C 358.777 68.667,358.276 66.060,358.966 63.268 C 359.150 62.525,359.467 61.167,359.671 60.250 C 359.874 59.333,360.164 58.208,360.314 57.750 L 360.587 56.917 361.585 56.802 C 362.134 56.739,364.008 56.528,365.750 56.332 C 370.091 55.844,369.951 55.872,370.545 55.341 C 371.215 54.743,371.293 53.719,370.712 53.138 C 370.073 52.499,366.383 52.427,362.458 52.977 C 361.931 53.050,361.502 53.105,361.505 53.097 C 361.507 53.090,361.736 52.446,362.014 51.667 C 362.291 50.887,362.586 49.987,362.668 49.665 C 362.750 49.343,362.933 48.801,363.075 48.462 C 363.948 46.374,362.431 44.747,360.533 45.734 C 359.622 46.208,359.393 46.609,358.333 49.583 C 358.137 50.133,357.841 50.958,357.675 51.417 C 356.958 53.392,356.996 53.333,356.438 53.343 C 352.717 53.412,351.425 53.758,351.242 54.735 C 350.953 56.277,351.956 57.164,353.994 57.169 C 355.570 57.173,355.638 57.291,354.620 58.253 C 351.286 61.403,350.220 62.357,349.561 62.785 C 344.240 66.234,341.870 64.235,343.692 57.834 C 345.310 52.147,339.601 50.015,333.893 54.174 C 332.501 55.189,330.000 57.834,330.000 58.293 C 330.000 58.379,329.613 58.779,329.140 59.183 C 328.668 59.586,328.161 60.037,328.015 60.185 C 327.766 60.436,326.566 61.488,325.645 62.261 C 325.420 62.450,325.126 62.657,324.993 62.722 C 324.859 62.786,324.412 63.059,324.000 63.327 C 321.889 64.702,319.074 65.432,318.417 64.774 C 318.122 64.479,317.545 62.031,317.336 60.193 C 316.815 55.595,316.120 54.333,314.105 54.333 C 313.276 54.333,311.389 55.064,310.583 55.696 C 308.660 57.206,306.000 59.986,306.000 60.486 C 306.000 60.585,305.939 60.667,305.865 60.667 C 305.739 60.667,304.667 62.086,304.667 62.253 C 304.667 62.296,304.396 62.685,304.065 63.118 C 303.735 63.551,303.395 64.087,303.311 64.309 C 303.060 64.969,303.002 64.639,303.167 63.492 C 303.319 62.430,303.700 59.444,304.344 54.250 C 304.673 51.598,305.219 47.599,305.496 45.815 C 305.879 43.353,304.245 41.847,302.417 42.977 M182.000 50.572 C 180.897 50.748,179.976 51.102,178.484 51.922 C 177.178 52.641,174.512 55.786,173.191 58.167 C 170.072 63.787,169.640 67.932,172.000 69.579 C 174.000 70.975,176.169 70.475,178.917 67.984 C 180.360 66.675,180.667 66.361,180.667 66.189 C 180.667 66.085,180.733 66.000,180.813 66.000 C 180.894 66.000,181.287 65.569,181.688 65.042 C 182.089 64.515,182.504 63.991,182.610 63.878 C 182.717 63.765,182.833 63.583,182.870 63.473 C 182.979 63.148,183.333 63.487,183.333 63.917 C 183.333 64.352,183.832 65.300,184.473 66.083 C 186.441 68.489,189.535 67.558,193.947 63.231 C 195.011 62.187,195.904 61.333,195.932 61.333 C 195.959 61.333,195.938 62.365,195.885 63.625 C 195.683 68.428,197.174 70.480,199.527 68.635 C 201.139 67.371,202.178 66.206,204.331 63.250 C 204.731 62.700,205.271 61.973,205.529 61.635 C 205.788 61.296,206.000 60.972,206.000 60.914 C 206.000 60.626,207.983 58.833,208.302 58.833 C 208.694 58.833,209.333 59.871,209.333 60.508 C 209.333 61.367,210.076 65.014,210.451 66.000 C 211.583 68.971,214.334 70.138,217.444 68.967 C 218.363 68.620,218.637 68.471,219.827 67.667 C 220.098 67.483,220.360 67.333,220.408 67.333 C 220.457 67.333,220.628 67.224,220.790 67.090 C 220.951 66.956,221.421 66.583,221.833 66.260 L 222.583 65.673 222.707 66.501 C 223.212 69.891,226.036 70.516,230.417 68.207 C 230.875 67.965,231.325 67.710,231.417 67.639 C 233.214 66.250,233.629 65.911,233.874 65.631 C 234.336 65.103,234.122 67.918,233.422 71.583 C 233.020 73.685,232.513 74.874,231.447 76.207 C 230.768 77.057,228.058 77.114,226.465 76.311 C 226.125 76.140,225.766 76.000,225.667 76.000 C 225.418 76.000,222.998 74.237,222.667 73.815 C 222.130 73.130,220.863 72.840,220.442 73.305 C 219.750 74.070,220.378 75.567,222.104 77.265 C 223.414 78.554,223.489 78.607,225.182 79.446 C 227.340 80.517,227.516 80.567,229.345 80.635 C 235.285 80.858,238.071 75.119,238.753 61.254 C 238.807 60.156,238.959 58.394,239.091 57.337 C 239.552 53.639,239.413 52.850,238.120 51.832 C 236.109 50.251,232.194 51.085,229.417 53.687 C 227.730 55.267,227.288 55.750,226.236 57.167 C 225.306 58.418,222.577 61.127,220.936 62.429 C 220.192 63.019,219.508 63.561,219.417 63.635 C 219.098 63.889,217.580 64.638,217.017 64.819 C 215.085 65.437,214.345 64.578,213.914 61.214 C 213.096 54.835,211.439 53.065,207.583 54.451 C 205.778 55.099,203.131 57.883,200.750 61.636 C 199.984 62.842,199.842 62.635,200.317 61.005 C 200.492 60.406,200.801 59.317,201.004 58.583 C 201.208 57.850,201.478 56.918,201.604 56.512 C 202.327 54.185,201.327 52.441,199.505 52.851 C 198.523 53.072,197.333 54.427,197.333 55.326 C 197.333 55.496,197.116 55.773,196.850 55.942 C 196.585 56.111,195.362 57.225,194.134 58.417 C 190.745 61.704,188.818 63.167,187.876 63.167 C 186.753 63.167,186.099 58.097,186.898 55.583 C 187.233 54.531,187.240 53.602,186.917 53.333 C 186.779 53.219,186.667 53.023,186.667 52.896 C 186.667 52.770,186.598 52.667,186.514 52.667 C 186.429 52.667,186.189 52.385,185.979 52.042 C 185.769 51.698,185.538 51.392,185.465 51.361 C 185.393 51.331,185.333 51.207,185.333 51.088 C 185.333 50.830,184.155 50.325,183.622 50.353 C 183.417 50.364,182.688 50.463,182.000 50.572 M250.583 53.066 C 247.793 54.092,245.738 55.563,244.538 57.395 C 242.000 61.270,240.915 64.994,241.654 67.294 C 241.997 68.361,243.164 70.000,243.580 70.000 C 243.659 70.000,243.854 70.118,244.012 70.261 C 244.717 70.899,246.914 71.140,248.667 70.773 C 250.206 70.450,253.736 68.693,253.972 68.132 C 254.003 68.059,254.109 68.000,254.208 68.000 C 254.307 68.000,254.507 67.889,254.653 67.753 C 257.118 65.444,258.000 64.561,258.000 64.401 C 258.000 64.294,258.110 64.116,258.245 64.004 C 259.038 63.346,259.923 60.290,259.779 58.710 C 259.355 54.076,255.041 51.429,250.583 53.066 M144.118 54.792 C 144.502 55.445,144.600 55.844,144.677 57.083 C 144.728 57.908,144.824 58.699,144.889 58.840 C 145.163 59.428,142.359 62.900,140.250 64.585 C 137.290 66.948,136.120 67.319,136.031 65.922 C 135.887 63.647,138.735 58.508,142.059 55.042 C 143.266 53.784,143.508 53.754,144.118 54.792 M183.164 54.208 C 183.147 55.863,182.210 58.375,180.685 60.852 C 178.889 63.769,175.723 66.916,174.902 66.601 C 174.380 66.401,174.929 63.480,175.712 62.285 C 175.870 62.043,176.000 61.739,176.000 61.610 C 176.000 61.480,176.110 61.283,176.244 61.172 C 176.377 61.061,176.534 60.822,176.591 60.642 C 176.833 59.879,179.168 56.691,180.351 55.508 C 181.469 54.390,183.171 53.604,183.164 54.208 M235.167 55.458 C 235.169 59.037,234.319 61.873,232.979 62.750 C 232.839 62.842,232.206 63.263,231.571 63.687 C 229.029 65.383,227.333 65.859,227.334 64.875 C 227.336 63.866,229.400 59.333,229.858 59.333 C 229.936 59.333,230.000 59.246,230.000 59.139 C 230.000 59.032,230.113 58.826,230.250 58.681 C 230.388 58.535,230.835 57.994,231.244 57.477 C 233.350 54.816,235.166 53.881,235.167 55.458 M339.574 56.037 C 339.911 56.518,339.904 57.649,339.557 58.819 C 339.299 59.691,338.056 62.483,337.844 62.667 C 337.791 62.712,337.526 63.050,337.256 63.417 C 336.627 64.268,335.601 65.294,334.750 65.922 C 334.383 66.193,334.046 66.453,334.000 66.499 C 333.669 66.834,332.431 67.333,331.932 67.333 C 330.350 67.333,330.801 64.946,333.237 60.417 C 333.336 60.233,333.458 60.046,333.508 60.000 C 333.558 59.954,333.780 59.654,334.000 59.333 C 335.740 56.799,338.828 54.973,339.574 56.037 M45.499 56.144 C 45.499 56.202,45.162 56.389,44.749 56.558 C 44.337 56.728,44.000 56.971,44.000 57.100 C 44.000 57.228,43.906 57.333,43.792 57.334 C 42.851 57.334,42.051 62.117,42.835 63.061 C 43.652 64.045,44.275 64.666,44.444 64.666 C 44.551 64.667,44.665 64.744,44.696 64.839 C 44.970 65.659,49.530 65.659,49.804 64.839 C 49.835 64.744,49.953 64.667,50.066 64.667 C 50.325 64.667,50.992 63.954,51.578 63.052 C 52.242 62.028,52.172 59.224,51.458 58.289 C 51.206 57.959,50.998 57.628,50.996 57.553 C 50.992 57.387,49.761 56.500,49.535 56.500 C 49.447 56.500,49.278 56.385,49.161 56.244 C 48.946 55.984,45.501 55.890,45.499 56.144 M84.625 56.110 C 84.373 56.153,84.167 56.246,84.167 56.315 C 84.167 56.384,83.828 56.610,83.415 56.816 C 82.668 57.189,82.546 57.317,81.731 58.569 C 81.185 59.408,81.168 62.885,81.708 63.187 C 81.869 63.277,82.000 63.451,82.000 63.574 C 82.000 63.698,82.281 64.034,82.625 64.320 C 82.969 64.607,83.364 64.947,83.502 65.075 C 83.925 65.466,85.279 65.714,86.548 65.632 C 87.800 65.552,88.200 65.392,89.060 64.625 C 89.343 64.373,89.621 64.167,89.678 64.167 C 89.734 64.167,89.922 63.904,90.095 63.583 C 90.268 63.262,90.451 63.000,90.502 63.000 C 90.875 63.000,90.814 59.417,90.428 58.667 C 90.077 57.985,88.754 56.667,88.420 56.667 C 88.294 56.667,88.065 56.541,87.912 56.388 C 87.627 56.103,85.640 55.935,84.625 56.110 M253.757 56.480 C 256.807 57.865,255.581 62.613,251.488 65.268 C 251.082 65.532,250.713 65.785,250.667 65.832 C 250.539 65.962,249.168 66.599,248.372 66.899 C 244.739 68.266,245.396 62.218,249.327 58.112 C 251.139 56.220,252.268 55.804,253.757 56.480 M110.583 59.449 C 107.842 60.086,105.667 61.329,105.667 62.258 C 105.667 62.837,106.076 62.884,106.411 62.343 C 106.507 62.187,106.883 61.974,108.417 61.206 C 110.413 60.207,113.366 60.103,116.276 60.929 C 116.656 61.037,117.018 60.431,116.725 60.177 C 116.126 59.655,111.868 59.151,110.583 59.449 M15.917 59.868 C 13.841 60.255,13.324 60.562,13.855 61.093 C 14.055 61.293,14.242 61.280,15.169 60.998 C 17.779 60.204,21.022 60.667,23.406 62.172 C 24.669 62.970,24.667 62.970,24.667 62.290 C 24.667 60.665,19.426 59.214,15.917 59.868 M64.617 60.439 C 64.373 60.683,64.516 61.302,64.917 61.734 C 65.146 61.982,65.333 62.247,65.333 62.324 C 65.333 62.401,65.446 62.508,65.583 62.560 C 65.860 62.666,65.932 63.333,65.667 63.333 C 65.575 63.333,65.500 63.444,65.500 63.579 C 65.500 63.714,65.256 63.950,64.958 64.102 C 64.660 64.255,64.378 64.440,64.330 64.513 C 64.283 64.586,63.878 64.669,63.431 64.698 C 62.549 64.754,62.080 65.147,62.451 65.517 C 62.686 65.752,65.044 65.451,65.136 65.175 C 65.168 65.079,65.282 64.998,65.389 64.995 C 65.496 64.993,65.771 64.732,66.000 64.417 C 66.443 63.806,66.667 63.688,66.667 64.064 C 66.667 64.928,69.610 65.921,70.170 65.246 C 70.444 64.916,70.326 64.816,69.553 64.723 C 68.612 64.609,67.585 64.018,67.251 63.396 L 66.958 62.852 67.574 62.012 C 68.587 60.632,68.442 60.427,66.408 60.370 C 65.487 60.344,64.681 60.375,64.617 60.439 M107.500 64.425 C 105.585 64.835,105.667 64.795,105.667 65.337 C 105.667 65.913,105.715 65.923,106.687 65.563 C 108.742 64.802,112.328 65.233,113.582 66.392 C 114.805 67.521,115.500 67.749,115.500 67.021 C 115.500 66.719,114.601 65.868,113.417 65.049 C 112.190 64.202,109.747 63.944,107.500 64.425 M18.667 64.646 C 17.317 64.948,14.940 66.744,15.032 67.391 C 15.112 67.945,15.532 67.897,16.233 67.255 C 16.586 66.931,16.917 66.667,16.969 66.667 C 17.020 66.667,17.217 66.529,17.406 66.361 C 18.551 65.343,20.770 65.067,23.011 65.663 C 24.625 66.092,24.667 66.088,24.667 65.520 C 24.667 64.781,20.663 64.198,18.667 64.646 " stroke="none" fill="#fbfbfb" fill-rule="evenodd"></path></g></svg>