<svg id="svg" version="1.1" xmlns="http://www.w3.org/2000/svg" xmlns:xlink="http://www.w3.org/1999/xlink" width="400" height="400" viewBox="0, 0, 400,400"><g id="svgg"><path id="path0" d="M91.800 74.668 C 90.920 75.040,90.110 75.467,90.000 75.618 C 89.890 75.769,89.395 76.019,88.900 76.173 C 88.405 76.328,88.000 76.622,88.000 76.827 C 88.000 77.032,87.813 77.200,87.584 77.200 C 87.134 77.200,84.000 80.171,84.000 80.597 C 84.000 80.740,83.775 81.108,83.500 81.415 C 83.225 81.721,82.814 82.203,82.587 82.486 C 82.012 83.202,80.800 85.829,80.800 86.360 C 80.800 86.602,80.620 86.800,80.400 86.800 C 80.180 86.800,80.000 87.160,80.000 87.600 C 80.000 88.040,79.822 88.400,79.605 88.400 C 79.387 88.400,79.094 89.120,78.954 90.000 C 78.813 90.880,78.541 91.600,78.349 91.600 C 78.157 91.600,78.000 92.219,78.000 92.976 C 78.000 93.733,77.830 94.458,77.623 94.586 C 77.416 94.714,77.123 96.074,76.972 97.609 C 76.820 99.144,76.540 100.400,76.348 100.400 C 76.157 100.400,76.000 101.402,76.000 102.626 C 76.000 103.851,75.789 105.246,75.531 105.726 C 75.062 106.598,74.554 124.519,74.152 154.300 L 73.979 167.200 80.527 167.200 L 87.075 167.200 87.351 150.300 C 87.503 141.005,87.626 129.771,87.626 125.336 C 87.625 119.532,87.790 116.639,88.213 115.016 C 88.536 113.776,88.800 112.230,88.800 111.580 C 88.800 110.931,88.980 110.400,89.200 110.400 C 89.427 110.400,89.602 109.230,89.604 107.700 C 89.607 106.215,89.877 104.116,90.204 103.036 C 90.532 101.956,90.800 100.561,90.800 99.936 C 90.800 99.311,90.935 98.799,91.100 98.799 C 91.265 98.798,91.748 97.952,92.173 96.919 C 93.978 92.529,98.840 90.669,103.462 92.600 C 104.251 92.930,105.236 93.200,105.649 93.200 C 106.062 93.200,106.400 93.380,106.400 93.600 C 106.400 93.820,106.760 94.000,107.200 94.000 C 107.640 94.000,108.000 94.177,108.000 94.392 C 108.000 94.608,108.450 94.898,109.000 95.036 C 109.550 95.174,110.000 95.447,110.000 95.643 C 110.000 95.840,110.270 96.000,110.600 96.000 C 110.930 96.000,111.200 96.141,111.200 96.314 C 111.200 96.486,111.785 96.969,112.500 97.387 C 113.215 97.804,114.035 98.473,114.323 98.873 C 114.610 99.273,115.116 99.600,115.446 99.600 C 115.777 99.600,115.961 99.740,115.855 99.912 C 115.749 100.083,116.863 100.840,118.331 101.593 C 121.882 103.415,125.892 107.420,127.430 110.680 L 128.600 113.160 194.800 113.176 L 261.000 113.192 262.159 110.696 C 263.682 107.416,268.076 102.978,271.518 101.241 C 272.903 100.542,274.138 99.707,274.261 99.385 C 274.385 99.063,274.713 98.800,274.992 98.800 C 275.270 98.800,276.216 98.035,277.093 97.100 C 278.800 95.281,279.783 94.517,280.900 94.142 C 281.285 94.012,281.600 93.786,281.600 93.638 C 281.600 93.490,282.635 92.837,283.900 92.187 C 285.165 91.536,286.325 90.828,286.479 90.613 C 286.914 90.002,292.825 90.119,294.230 90.767 C 295.395 91.303,298.071 94.873,299.053 97.200 C 299.983 99.403,300.800 102.375,300.800 103.554 C 300.800 104.239,300.955 104.800,301.145 104.800 C 301.334 104.800,301.614 106.177,301.767 107.861 C 301.920 109.545,302.153 111.463,302.285 112.123 C 302.443 112.917,302.382 113.236,302.102 113.063 C 301.863 112.915,301.952 113.628,302.306 114.701 C 302.806 116.214,302.972 119.244,303.120 129.600 C 303.222 136.750,303.392 148.675,303.499 156.100 L 303.693 169.600 310.247 169.600 L 316.800 169.600 316.776 155.900 C 316.763 148.365,316.571 141.300,316.349 140.200 C 316.127 139.100,315.787 132.282,315.594 125.049 C 315.401 117.815,315.053 111.354,314.821 110.689 C 314.590 110.024,314.400 108.427,314.400 107.140 C 314.400 105.853,314.243 104.800,314.052 104.800 C 313.860 104.800,313.578 103.363,313.425 101.607 C 313.272 99.851,312.978 98.310,312.773 98.183 C 312.568 98.057,312.400 97.333,312.400 96.576 C 312.400 95.819,312.237 95.200,312.038 95.200 C 311.838 95.200,311.551 94.300,311.400 93.200 C 311.249 92.101,310.962 91.100,310.763 90.977 C 310.563 90.854,310.400 90.313,310.400 89.776 C 310.400 89.239,310.228 88.800,310.018 88.800 C 309.808 88.800,309.518 88.170,309.374 87.400 C 309.229 86.630,308.951 86.000,308.755 86.000 C 308.560 86.000,308.400 85.730,308.400 85.400 C 308.400 85.070,308.234 84.800,308.032 84.800 C 307.829 84.800,307.550 84.285,307.412 83.655 C 307.102 82.243,301.575 76.509,300.189 76.161 C 299.645 76.025,299.200 75.792,299.200 75.644 C 299.200 75.255,296.158 74.467,293.600 74.193 C 290.861 73.901,284.000 74.938,284.000 75.645 C 284.000 75.840,283.623 76.000,283.162 76.000 C 282.701 76.000,281.846 76.248,281.262 76.551 C 280.678 76.854,279.660 77.349,279.000 77.651 C 278.340 77.953,277.562 78.425,277.271 78.700 C 276.981 78.975,276.486 79.200,276.171 79.200 C 275.857 79.200,275.600 79.380,275.600 79.600 C 275.600 79.820,275.330 80.000,275.000 80.000 C 274.670 80.000,274.400 80.139,274.400 80.309 C 274.400 80.479,273.770 80.957,273.000 81.372 C 272.230 81.787,271.600 82.278,271.600 82.463 C 271.600 82.648,271.330 82.800,271.000 82.800 C 270.670 82.800,270.400 82.951,270.400 83.136 C 270.400 83.320,269.995 83.664,269.500 83.898 C 268.344 84.446,267.067 85.427,265.071 87.300 C 264.192 88.125,263.338 88.800,263.173 88.800 C 263.008 88.800,262.040 89.610,261.021 90.600 C 260.003 91.590,259.055 92.400,258.915 92.400 C 258.776 92.400,256.982 94.110,254.929 96.200 L 251.196 100.000 197.593 100.000 C 155.434 100.000,143.806 99.893,143.131 99.500 C 142.659 99.225,141.249 97.965,139.997 96.700 C 138.746 95.435,137.591 94.400,137.430 94.400 C 137.270 94.400,136.636 93.905,136.022 93.300 C 134.997 92.290,134.270 91.690,131.675 89.707 C 131.166 89.318,130.440 88.730,130.061 88.400 C 128.507 87.044,126.426 85.600,126.027 85.600 C 125.792 85.600,125.600 85.448,125.600 85.263 C 125.600 85.078,124.970 84.587,124.200 84.172 C 123.430 83.757,122.800 83.279,122.800 83.109 C 122.800 82.939,122.612 82.800,122.383 82.800 C 122.154 82.800,121.569 82.428,121.083 81.973 C 120.597 81.517,119.705 81.045,119.100 80.923 C 118.495 80.800,118.000 80.540,118.000 80.344 C 118.000 80.147,117.325 79.675,116.500 79.294 C 115.675 78.912,114.910 78.510,114.800 78.399 C 114.690 78.289,114.060 77.952,113.400 77.651 C 112.740 77.349,111.722 76.854,111.138 76.551 C 110.554 76.248,109.699 76.000,109.238 76.000 C 108.777 76.000,108.400 75.820,108.400 75.600 C 108.400 75.380,107.986 75.200,107.480 75.200 C 106.974 75.200,106.343 74.983,106.078 74.718 C 105.240 73.880,93.761 73.840,91.800 74.668 " stroke="none" fill="#fb249c" fill-rule="evenodd"></path><path id="path1" d="M137.500 168.265 C 136.895 168.369,136.400 168.607,136.400 168.795 C 136.400 168.983,135.875 169.252,135.233 169.393 C 134.592 169.534,133.967 169.908,133.846 170.224 C 133.724 170.541,133.411 170.800,133.150 170.800 C 132.477 170.800,129.764 173.652,129.428 174.713 C 129.273 175.201,129.000 175.600,128.821 175.600 C 128.242 175.600,127.600 179.072,127.600 182.200 C 127.600 185.328,128.242 188.800,128.821 188.800 C 129.000 188.800,129.272 189.205,129.427 189.700 C 129.900 191.216,134.406 195.200,135.648 195.200 C 136.025 195.200,136.408 195.425,136.500 195.700 C 136.729 196.384,146.698 196.414,147.119 195.732 C 147.278 195.474,147.901 195.140,148.504 194.988 C 149.107 194.837,149.600 194.547,149.600 194.344 C 149.600 194.141,149.915 193.858,150.300 193.714 C 151.151 193.397,153.200 191.531,153.200 191.073 C 153.200 190.891,153.425 190.492,153.700 190.185 C 154.936 188.807,155.131 188.415,155.552 186.448 C 156.349 182.734,155.871 176.813,154.652 175.304 C 154.404 174.996,153.885 174.446,153.500 174.083 C 153.115 173.720,152.800 173.232,152.800 173.000 C 152.800 172.343,150.752 170.791,147.600 169.061 C 146.194 168.290,140.147 167.813,137.500 168.265 M253.900 168.665 C 253.295 168.769,252.800 169.007,252.800 169.195 C 252.800 169.383,252.275 169.652,251.633 169.793 C 250.992 169.934,250.367 170.308,250.246 170.624 C 250.124 170.941,249.811 171.200,249.550 171.200 C 248.877 171.200,246.164 174.052,245.828 175.113 C 245.673 175.601,245.400 176.000,245.221 176.000 C 244.642 176.000,244.000 179.472,244.000 182.600 C 244.000 185.728,244.642 189.200,245.221 189.200 C 245.400 189.200,245.672 189.605,245.827 190.100 C 246.300 191.616,250.806 195.600,252.048 195.600 C 252.425 195.600,252.808 195.825,252.900 196.100 C 253.129 196.784,263.098 196.814,263.519 196.132 C 263.678 195.874,264.301 195.540,264.904 195.388 C 265.507 195.237,266.000 194.947,266.000 194.744 C 266.000 194.541,266.315 194.258,266.700 194.114 C 267.551 193.797,269.600 191.931,269.600 191.473 C 269.600 191.291,269.825 190.892,270.100 190.585 C 271.336 189.207,271.531 188.815,271.952 186.848 C 272.749 183.134,272.271 177.213,271.052 175.704 C 270.804 175.396,270.285 174.846,269.900 174.483 C 269.515 174.120,269.200 173.632,269.200 173.400 C 269.200 172.743,267.152 171.191,264.000 169.461 C 262.594 168.690,256.547 168.213,253.900 168.665 M330.206 179.064 C 323.980 180.398,316.809 184.586,316.803 186.891 L 316.800 188.382 320.151 186.198 C 328.123 181.002,335.148 179.691,344.523 181.653 C 349.708 182.738,349.605 182.734,350.145 181.877 C 351.670 179.453,337.634 177.472,330.206 179.064 M46.306 180.141 C 41.655 181.101,40.737 181.588,41.464 182.711 C 41.996 183.531,41.860 183.539,47.349 182.402 C 55.965 180.618,63.245 181.845,70.293 186.269 C 74.312 188.793,74.000 188.728,74.000 187.042 C 74.000 185.858,73.754 185.526,72.087 184.456 C 64.368 179.503,56.104 178.119,46.306 180.141 M193.600 182.400 C 193.600 183.060,193.780 183.600,194.000 183.600 C 194.220 183.600,194.400 183.839,194.400 184.130 C 194.400 184.422,194.850 185.083,195.400 185.600 C 195.950 186.117,196.400 186.759,196.400 187.027 C 196.400 187.295,196.670 187.618,197.000 187.745 C 197.330 187.871,197.600 188.409,197.600 188.938 C 197.600 189.468,197.330 190.126,197.000 190.400 C 196.670 190.674,196.400 191.149,196.400 191.455 C 196.400 191.762,195.725 192.325,194.900 192.706 C 194.075 193.088,193.288 193.554,193.150 193.742 C 193.013 193.930,191.713 194.179,190.260 194.296 C 188.151 194.465,187.572 194.657,187.384 195.250 C 186.388 198.389,195.156 196.499,197.983 192.967 C 199.326 191.288,200.400 191.123,200.400 192.595 C 200.400 193.135,203.165 195.200,203.888 195.200 C 204.133 195.200,204.399 195.398,204.480 195.639 C 204.671 196.212,209.628 196.558,210.374 196.051 C 211.379 195.368,210.138 194.475,207.772 194.179 C 206.577 194.030,205.600 193.768,205.600 193.597 C 205.600 193.426,205.181 193.182,204.669 193.053 C 200.898 192.107,200.039 188.456,202.894 185.512 C 204.068 184.302,204.629 182.773,204.256 181.801 C 204.067 181.309,203.080 181.200,198.813 181.200 L 193.600 181.200 193.600 182.400 M323.000 193.387 C 317.422 194.413,316.800 194.682,316.800 196.062 C 316.800 197.136,316.915 197.266,317.700 197.078 C 330.823 193.944,335.280 194.472,342.109 199.974 C 345.244 202.500,346.400 202.831,346.400 201.200 C 346.400 200.087,341.956 196.227,338.800 194.598 C 335.296 192.789,328.910 192.300,323.000 193.387 M56.000 194.146 C 51.879 195.348,45.200 200.205,45.200 202.000 C 45.200 203.631,46.356 203.300,49.491 200.774 C 55.936 195.582,64.995 194.451,73.300 197.803 C 73.886 198.040,74.000 197.861,74.000 196.704 L 74.000 195.323 70.900 194.617 C 66.879 193.701,58.441 193.434,56.000 194.146 " stroke="none" fill="#f9f9f9" fill-rule="evenodd"></path><path id="path2" d="M74.093 199.900 L 74.218 232.600 75.153 235.800 C 75.668 237.560,76.077 239.348,76.064 239.774 C 76.029 240.835,77.773 247.356,79.387 252.200 C 88.998 281.045,111.512 305.464,139.556 317.460 C 151.286 322.478,156.907 323.729,159.590 321.919 C 164.016 318.934,163.980 316.143,159.395 306.995 C 154.131 296.490,152.268 289.437,151.393 276.700 L 151.125 272.800 212.710 272.800 C 284.283 272.800,280.208 273.054,290.683 267.936 C 298.141 264.293,310.000 253.429,310.000 250.240 C 310.000 249.959,310.799 248.125,311.776 246.165 C 316.732 236.220,316.800 235.591,316.800 199.756 L 316.800 169.600 310.225 169.600 L 303.650 169.600 303.487 199.700 C 303.328 229.070,303.133 233.600,302.031 233.600 C 301.864 233.600,301.498 234.365,301.218 235.300 C 298.179 245.454,288.449 254.451,277.000 257.694 L 273.800 258.600 206.836 258.683 L 139.873 258.766 138.544 260.054 C 136.510 262.025,136.252 263.321,136.568 269.971 C 137.144 282.109,138.479 292.561,140.216 298.535 C 141.381 302.543,141.517 302.456,137.522 300.277 C 120.448 290.965,106.555 276.390,97.795 258.600 C 94.830 252.578,91.200 242.707,91.200 240.666 C 91.200 240.066,90.850 238.537,90.423 237.269 C 89.996 236.001,89.419 233.352,89.141 231.382 C 88.863 229.412,88.484 227.694,88.299 227.565 C 87.726 227.164,87.226 208.727,87.213 187.500 L 87.200 167.200 80.585 167.200 L 73.969 167.200 74.093 199.900 " stroke="none" fill="#24ccec" fill-rule="evenodd"></path></g></svg>